<?xml version="1.0" encoding="utf-8"?>
<!-- Generator: Adobe Illustrator 19.1.0, SVG Export Plug-In . SVG Version: 6.00 Build 0)  -->
<svg version="1.1" id="Layer_1" xmlns="http://www.w3.org/2000/svg" xmlns:xlink="http://www.w3.org/1999/xlink" x="0px" y="0px"
	 viewBox="13 -3 56 36" style="enable-background:new 13 -3 56 36;" xml:space="preserve">
<style type="text/css">
	.st0{fill:#FFFFFF;}
</style>
<g>
	<path class="st0" d="M60.9-3H21.1C16.6-3,13,0.6,13,5.1v19.7c0,4.5,3.6,8.1,8.1,8.1h39.7c4.5,0,8.1-3.6,8.1-8.1V5.1
		C69,0.6,65.4-3,60.9-3z M32.7,24.8v-2.1c0-1.6-1.3-2.9-2.9-2.9h-1.2l-2,3.3l-0.7-1.3l1.2-2h-1.5h-1.5l1.2,2L24.6,23l-2-3.3h-1.2
		c-1.6,0-2.9,1.3-2.9,2.9v1.9c-0.6-0.5-1-1.2-1-2.1V7.7c0-1.5,1.2-2.7,2.7-2.7h11c1.5,0,2.7,1.2,2.7,2.7v14.8h0
		C33.9,23.5,33.4,24.3,32.7,24.8z M64.7,22.2c0,0.8-0.7,1.5-1.5,1.5H39.4c-0.8,0-1.5-0.7-1.5-1.5v-0.2c0-0.8,0.7-1.5,1.5-1.5h23.8
		c0.8,0,1.5,0.7,1.5,1.5V22.2z M64.7,15.3c0,0.8-0.7,1.5-1.5,1.5H39.4c-0.8,0-1.5-0.7-1.5-1.5v-0.2c0-0.8,0.7-1.5,1.5-1.5h23.8
		c0.8,0,1.5,0.7,1.5,1.5V15.3z M64.7,8.4c0,0.8-0.7,1.5-1.5,1.5H39.4c-0.8,0-1.5-0.7-1.5-1.5V8.2c0-0.8,0.7-1.5,1.5-1.5h23.8
		c0.8,0,1.5,0.7,1.5,1.5V8.4z"/>
	<circle class="st0" cx="25.6" cy="14.3" r="4.2"/>
</g>
</svg>
