<?xml version="1.0" encoding="UTF-8" standalone="no"?>
<svg width="32px" height="28px" viewBox="0 0 32 28" version="1.1" xmlns="http://www.w3.org/2000/svg" xmlns:xlink="http://www.w3.org/1999/xlink" xmlns:sketch="http://www.bohemiancoding.com/sketch/ns">
    <!-- Generator: Sketch 3.4 (15575) - http://www.bohemiancoding.com/sketch -->
    <title>Camera</title>
    <desc>Created with Sketch.</desc>
    <defs></defs>
    <g id="Page-1" stroke="none" stroke-width="1" fill="none" fill-rule="evenodd" sketch:type="MSPage">
        <g id="Faircontroll_screen-Copy" sketch:type="MSArtboardGroup" transform="translate(-107.000000, -408.000000)" fill="#3498DB">
            <g id="Camera-+-Add-Business" sketch:type="MSLayerGroup" transform="translate(75.000000, 408.000000)">
                <path d="M60,4 L57,4 L56,2 C55.41101,0.83701 55.104,0 54,0 L42,0 C40.895996,0 40.529999,0.95401 40,2 L39,4 L36,4 C33.790985,4 32,5.79099 32,8 L32,24 C32,26.209015 33.790985,28 36,28 L60,28 C62.20901,28 64,26.209015 64,24 L64,8 C64,5.79099 62.20901,4 60,4 L60,4 Z M48,24 C43.582,24 40,20.417999 40,16 C40,11.582 43.582,8 48,8 C52.418,8 56,11.582 56,16 C56,20.417999 52.418,24 48,24 L48,24 Z M48,10 C44.68701,10 42,12.68701 42,16 C42,19.312988 44.68701,22 48,22 C51.31299,22 54,19.312988 54,16 C54,12.68701 51.31299,10 48,10 L48,10 L48,10 Z" id="Camera" sketch:type="MSShapeGroup"></path>
            </g>
        </g>
    </g>
</svg>