<?xml version="1.0" encoding="UTF-8" standalone="no"?>
<svg width="64px" height="64px" viewBox="0 0 64 64" version="1.1" xmlns="http://www.w3.org/2000/svg" xmlns:xlink="http://www.w3.org/1999/xlink" xmlns:sketch="http://www.bohemiancoding.com/sketch/ns">
    <!-- Generator: Sketch 3.4 (15575) - http://www.bohemiancoding.com/sketch -->
    <title>checkmark-circle</title>
    <desc>Created with Sketch.</desc>
    <defs></defs>
    <g id="Page-1" stroke="none" stroke-width="1" fill="none" fill-rule="evenodd" sketch:type="MSPage">
        <g id="Faircontroll_screen" sketch:type="MSArtboardGroup" transform="translate(-156.000000, -163.000000)" fill="#7ED321">
            <path d="M200.786,183.86 C200.786,183.86 186.67,208.46 186.426,208.68 C185.62,209.44 184.354,209.4 183.6,208.6 L174.456,200.16 C173.7,199.36 173.742,198.08 174.548,197.34 C175.354,196.58 176.62,196.62 177.376,197.42 L184.532,204.02 L197.322,181.86 C197.874,180.92 199.096,180.58 200.054,181.14 C201.01,181.68 201.338,182.92 200.786,183.86 L200.786,183.86 L200.786,183.86 Z M188,163 C170.328,163 156,177.32 156,195 C156,212.68 170.328,227 188,227 C205.672,227 220,212.68 220,195 C220,177.32 205.672,163 188,163 L188,163 L188,163 Z" id="checkmark-circle" sketch:type="MSShapeGroup"></path>
        </g>
    </g>
</svg>