<?xml version="1.0" encoding="UTF-8" standalone="no"?>
<svg width="28px" height="28px" viewBox="0 0 28 28" version="1.1" xmlns="http://www.w3.org/2000/svg" xmlns:xlink="http://www.w3.org/1999/xlink" xmlns:sketch="http://www.bohemiancoding.com/sketch/ns">
    <!-- Generator: Sketch 3.4 (15575) - http://www.bohemiancoding.com/sketch -->
    <title>Edit</title>
    <desc>Created with Sketch.</desc>
    <defs></defs>
    <g id="Page-1" stroke="none" stroke-width="1" fill="none" fill-rule="evenodd" sketch:type="MSPage">
        <g id="Faircontroll_screen-Copy" sketch:type="MSArtboardGroup" transform="translate(-238.000000, -408.000000)" fill="#3498DB">
            <g id="Edit-+-Imported-Layers" sketch:type="MSLayerGroup" transform="translate(206.000000, 408.000000)">
                <path d="M58.0287973,1.97045883 C55.7347122,-0.325423076 54.0117621,0.0182432376 54.0117621,0.0182432376 L44.3836048,9.64726421 L33.6068141,20.4234306 L32,28 L39.5774807,26.3930418 L50.3542714,15.6200575 L59.9824287,5.99103649 C59.9808378,5.99103649 60.3260642,4.26793178 58.0287973,1.97045883 L58.0287973,1.97045883 Z M39.0988701,25.6729475 L36.4227872,26.25 C36.165725,25.7669246 35.8542844,25.2838493 35.2857815,24.7133917 C34.7156309,24.1429341 34.2328154,23.8346231 33.75,23.5741252 L34.326742,20.8982503 L35.1012241,20.125 C35.1012241,20.125 36.5562618,20.154677 38.2008004,21.8001009 C39.8436911,23.4422275 39.875,24.9013459 39.875,24.9013459 L39.0988701,25.6729475 L39.0988701,25.6729475 Z" id="Edit" sketch:type="MSShapeGroup"></path>
            </g>
        </g>
    </g>
</svg>